<?xml version="1.0" encoding="UTF-8" standalone="no"?>
<!-- Created with Inkscape (http://www.inkscape.org/) -->

<svg
   xmlns:dc="http://purl.org/dc/elements/1.1/"
   xmlns:cc="http://creativecommons.org/ns#"
   xmlns:rdf="http://www.w3.org/1999/02/22-rdf-syntax-ns#"
   xmlns:svg="http://www.w3.org/2000/svg"
   xmlns="http://www.w3.org/2000/svg"
   xmlns:sodipodi="http://sodipodi.sourceforge.net/DTD/sodipodi-0.dtd"
   xmlns:inkscape="http://www.inkscape.org/namespaces/inkscape"
   width="210mm"
   height="297mm"
   viewBox="0 0 210 297"
   version="1.1"
   id="svg5866"
   inkscape:version="0.92.4 (5da689c313, 2019-01-14)"
   sodipodi:docname="checkmark.svg">
  <defs
     id="defs5860" />
  <sodipodi:namedview
     id="base"
     pagecolor="#ffffff"
     bordercolor="#666666"
     borderopacity="1.0"
     inkscape:pageopacity="0.0"
     inkscape:pageshadow="2"
     inkscape:zoom="1.4"
     inkscape:cx="351.74361"
     inkscape:cy="848.76329"
     inkscape:document-units="mm"
     inkscape:current-layer="layer1"
     showgrid="false"
     inkscape:window-width="2560"
     inkscape:window-height="1377"
     inkscape:window-x="-8"
     inkscape:window-y="-8"
     inkscape:window-maximized="1" />
  <metadata
     id="metadata5863">
    <rdf:RDF>
      <cc:Work
         rdf:about="">
        <dc:format>image/svg+xml</dc:format>
        <dc:type
           rdf:resource="http://purl.org/dc/dcmitype/StillImage" />
        <dc:title></dc:title>
      </cc:Work>
    </rdf:RDF>
  </metadata>
  <g
     inkscape:label="Layer 1"
     inkscape:groupmode="layer"
     id="layer1">
    <path
       style="fill:#e6e6e6;fill-opacity:1;stroke-width:0.06802418;stroke-miterlimit:4;stroke-dasharray:none"
       id="path4546-3-57-6"
       d="m 21.673741,21.836233 c 0.16361,0.2975 0.33913,0.58837 0.51054,0.88148 0.0928,0.15682 0.16441,0.32484 0.25342,0.4835 0.10473,0.19065 0.17831,0.39466 0.26276,0.59465 0.0951,0.21156 0.14649,0.43811 0.20123,0.66247 0.0485,0.2474 0.0673,0.49859 0.1266,0.74394 0.0602,0.19424 0.0891,0.39564 0.14774,0.59005 0.007,0.0264 0.0144,0.053 0.0222,0.0792 0.005,0.0181 0.007,0.0381 0.0174,0.0542 0.004,0.006 0.002,-0.0142 0.004,-0.0213 0.002,-0.0152 0.0203,-0.0525 0.006,-0.0455 -1.08002,0.55933 -1.433,0.95171 -1.0824,0.57355 0.20812,-0.40009 0.36487,-0.82558 0.54804,-1.2378 0.40737,-0.94865 0.84183,-1.88532 1.3205,-2.79991 0.91206,-1.69071 2.05168,-3.24215 3.13597,-4.82316 1.06958,-1.52636 2.16356,-3.03797 3.31004,-4.50757 0.8644,-1.10798 1.66888,-2.06533 2.56245,-3.1454705 0,0 1.04617,-0.44564 1.04617,-0.44564 v 0 c -0.96342,1.1555905 -1.6401,1.9477605 -2.56842,3.1422505 -1.13287,1.4577 -2.20812,2.96132 -3.25892,4.47904 -1.05147,1.56355 -2.14238,3.10708 -3.04198,4.76608 -0.47982,0.9062 -0.9154,1.83453 -1.30615,2.78296 -0.17713,0.41156 -0.33885,0.82892 -0.50988,1.24294 -0.18233,0.41841 -1.1343,1.09882 -1.35398,0.69194 -0.0223,-0.0411 -0.015,-0.0945 -0.0374,-0.1352 -0.0594,-0.19711 -0.0878,-0.40034 -0.14655,-0.5979 -0.0636,-0.24488 -0.0859,-0.49533 -0.12832,-0.74418 -0.0526,-0.21718 -0.0992,-0.43753 -0.18939,-0.64295 -0.0854,-0.19419 -0.15439,-0.39469 -0.25874,-0.58001 -0.0902,-0.15784 -0.16068,-0.32629 -0.24923,-0.48519 -0.16574,-0.29551 -0.33312,-0.58974 -0.50934,-0.87919 0,0 1.16575,-0.67734 1.16575,-0.67734 z"
       inkscape:connector-curvature="0" />
    <path
       style="fill:#cccccc;fill-opacity:1;stroke-width:0.06810794;stroke-miterlimit:4;stroke-dasharray:none"
       id="path4546-3-8-6"
       d="m 21.416411,21.836233 c 0.16402,0.2975 0.33997,0.58837 0.5118,0.88148 0.093,0.15682 0.16482,0.32484 0.25404,0.4835 0.10499,0.19065 0.17875,0.39466 0.26341,0.59465 0.0953,0.21156 0.14686,0.43811 0.20173,0.66247 0.0486,0.2474 0.0675,0.49859 0.12691,0.74394 0.0604,0.19424 0.0893,0.39564 0.1481,0.59005 0.007,0.0264 0.0144,0.053 0.0223,0.0792 0.005,0.0181 0.007,0.0381 0.0174,0.0542 0.004,0.006 0.002,-0.0142 0.004,-0.0213 0.002,-0.0152 0.0203,-0.0525 0.006,-0.0455 -1.0827,0.55933 -1.43654,0.95171 -1.08508,0.57355 0.20863,-0.40009 0.36578,-0.82558 0.54939,-1.2378 0.40838,-0.94865 0.8439,-1.88532 1.32375,-2.79991 0.91431,-1.69071 2.05674,-3.24215 3.14371,-4.82316 1.07222,-1.52636 2.16888,-3.03797 3.31819,-4.50757 0.86653,-1.10798 1.67299,-2.06533 2.56876,-3.1454705 0,0 1.04875,-0.44564 1.04875,-0.44564 v 0 c -0.9658,1.1555905 -1.64414,1.9477605 -2.57475,3.1422505 -1.13565,1.4577 -2.21355,2.96132 -3.26695,4.47904 -1.05406,1.56355 -2.14766,3.10708 -3.04947,4.76608 -0.48101,0.9062 -0.91766,1.83453 -1.30937,2.78296 -0.17756,0.41156 -0.33969,0.82892 -0.51114,1.24294 -0.18278,0.41841 -1.1371,1.09882 -1.35731,0.69194 -0.0223,-0.0411 -0.015,-0.0945 -0.0375,-0.1352 -0.0595,-0.19711 -0.088,-0.40034 -0.14691,-0.5979 -0.0638,-0.24488 -0.0861,-0.49533 -0.12864,-0.74418 -0.0527,-0.21718 -0.0994,-0.43753 -0.18985,-0.64295 -0.0855,-0.19419 -0.15477,-0.39469 -0.25938,-0.58001 -0.0904,-0.15784 -0.16107,-0.32629 -0.24984,-0.48519 -0.16615,-0.29551 -0.33394,-0.58974 -0.5106,-0.87919 0,0 1.16862,-0.67734 1.16862,-0.67734 z"
       inkscape:connector-curvature="0" />
    <path
       style="fill:#b3b3b3;fill-opacity:1;stroke-width:0.06810794;stroke-miterlimit:4;stroke-dasharray:none"
       id="path4546-3-56-3"
       d="m 21.203531,21.836233 c 0.16401,0.2975 0.33997,0.58837 0.5118,0.88148 0.093,0.15682 0.16481,0.32484 0.25403,0.4835 0.10499,0.19065 0.17875,0.39466 0.26342,0.59465 0.0953,0.21156 0.14685,0.43811 0.20173,0.66247 0.0486,0.2474 0.0675,0.49859 0.1269,0.74394 0.0604,0.19424 0.0893,0.39564 0.14811,0.59005 0.007,0.0264 0.0144,0.053 0.0223,0.0792 0.005,0.0181 0.007,0.0381 0.0174,0.0542 0.004,0.006 0.002,-0.0142 0.004,-0.0213 0.002,-0.0152 0.0203,-0.0525 0.006,-0.0455 -1.08269,0.55933 -1.43653,0.95171 -1.08508,0.57355 0.20863,-0.40009 0.36578,-0.82558 0.5494,-1.2378 0.40837,-0.94865 0.84389,-1.88532 1.32374,-2.79991 0.91431,-1.69071 2.05674,-3.24215 3.14371,-4.82316 1.07222,-1.52636 2.16888,-3.03797 3.3182,-4.50757 0.86652,-1.10798 1.67298,-2.06533 2.56875,-3.1454705 0,0 1.04875,-0.44564 1.04875,-0.44564 v 0 c -0.96579,1.1555905 -1.64413,1.9477605 -2.57474,3.1422505 -1.13566,1.4577 -2.21356,2.96132 -3.26696,4.47904 -1.05406,1.56355 -2.14766,3.10708 -3.04947,4.76608 -0.481,0.9062 -0.91765,1.83453 -1.30937,2.78296 -0.17756,0.41156 -0.33968,0.82892 -0.51114,1.24294 -0.18277,0.41841 -1.1371,1.09882 -1.35731,0.69194 -0.0223,-0.0411 -0.015,-0.0945 -0.0375,-0.1352 -0.0595,-0.19711 -0.0879,-0.40034 -0.14691,-0.5979 -0.0638,-0.24488 -0.0861,-0.49533 -0.12863,-0.74418 -0.0527,-0.21718 -0.0994,-0.43753 -0.18986,-0.64295 -0.0855,-0.19419 -0.15477,-0.39469 -0.25938,-0.58001 -0.0904,-0.15784 -0.16107,-0.32629 -0.24984,-0.48519 -0.16615,-0.29551 -0.33394,-0.58974 -0.5106,-0.87919 0,0 1.16863,-0.67734 1.16863,-0.67734 z"
       inkscape:connector-curvature="0" />
    <path
       style="fill:#999999;fill-opacity:1;stroke-width:0.06810794;stroke-miterlimit:4;stroke-dasharray:none"
       id="path4546-3-70-0"
       d="m 20.919681,21.836233 c 0.16401,0.2975 0.33997,0.58837 0.5118,0.88148 0.093,0.15682 0.16481,0.32484 0.25404,0.4835 0.10498,0.19065 0.17875,0.39466 0.26341,0.59465 0.0953,0.21156 0.14685,0.43811 0.20173,0.66247 0.0486,0.2474 0.0675,0.49859 0.12691,0.74394 0.0604,0.19424 0.0893,0.39564 0.1481,0.59005 0.007,0.0264 0.0144,0.053 0.0223,0.0792 0.005,0.0181 0.007,0.0381 0.0174,0.0542 0.004,0.006 0.002,-0.0142 0.004,-0.0213 0.002,-0.0152 0.0203,-0.0525 0.006,-0.0455 -1.08269,0.55933 -1.43653,0.95171 -1.08508,0.57355 0.20864,-0.40009 0.36578,-0.82558 0.5494,-1.2378 0.40837,-0.94865 0.8439,-1.88532 1.32375,-2.79991 0.91431,-1.69071 2.05673,-3.24215 3.1437,-4.82316 1.07222,-1.52636 2.16888,-3.03797 3.3182,-4.50757 0.86653,-1.10798 1.67298,-2.06533 2.56876,-3.1454705 0,0 1.04875,-0.44564 1.04875,-0.44564 v 0 c -0.9658,1.1555905 -1.64414,1.9477605 -2.57475,3.1422505 -1.13566,1.4577 -2.21356,2.96132 -3.26695,4.47904 -1.05406,1.56355 -2.14766,3.10708 -3.04948,4.76608 -0.481,0.9062 -0.91765,1.83453 -1.30936,2.78296 -0.17757,0.41156 -0.33969,0.82892 -0.51114,1.24294 -0.18278,0.41841 -1.1371,1.09882 -1.35732,0.69194 -0.0223,-0.0411 -0.015,-0.0945 -0.0375,-0.1352 -0.0595,-0.19711 -0.0879,-0.40034 -0.14692,-0.5979 -0.0638,-0.24488 -0.0861,-0.49533 -0.12863,-0.74418 -0.0527,-0.21718 -0.0994,-0.43753 -0.18986,-0.64295 -0.0855,-0.19419 -0.15476,-0.39469 -0.25937,-0.58001 -0.0904,-0.15784 -0.16108,-0.32629 -0.24984,-0.48519 -0.16615,-0.29551 -0.33395,-0.58974 -0.51061,-0.87919 0,0 1.16863,-0.67734 1.16863,-0.67734 z"
       inkscape:connector-curvature="0" />
    <path
       style="fill:#808080;fill-opacity:1;stroke-width:0.06810794;stroke-miterlimit:4;stroke-dasharray:none"
       id="path4546-3-7-1"
       d="m 20.645881,21.834173 c 0.16401,0.29751 0.33997,0.58838 0.5118,0.88149 0.093,0.15682 0.16482,0.32483 0.25404,0.4835 0.10499,0.19065 0.17875,0.39466 0.26341,0.59465 0.0953,0.21156 0.14685,0.43811 0.20173,0.66246 0.0486,0.24741 0.0675,0.49859 0.12691,0.74395 0.0604,0.19423 0.0893,0.39564 0.1481,0.59004 0.007,0.0264 0.0144,0.053 0.0223,0.0792 0.005,0.0181 0.007,0.0381 0.0174,0.0542 0.004,0.006 0.002,-0.0142 0.004,-0.0213 0.002,-0.0152 0.0203,-0.0525 0.006,-0.0455 -1.08269,0.55933 -1.43653,0.95171 -1.08507,0.57355 0.20863,-0.4001 0.36577,-0.82558 0.54939,-1.2378 0.40837,-0.94865 0.8439,-1.88532 1.32375,-2.79991 0.91431,-1.69071 2.05674,-3.24215 3.1437,-4.82316 1.07222,-1.52636 2.16889,-3.03798 3.3182,-4.50757 0.86653,-1.10799 1.67299,-2.06533 2.56876,-3.1454705 0,0 1.04875,-0.44565 1.04875,-0.44565 v 0 c -0.9658,1.1556005 -1.64414,1.9477605 -2.57475,3.1422605 -1.13566,1.4577 -2.21356,2.96131 -3.26695,4.47903 -1.05406,1.56356 -2.14766,3.10709 -3.04948,4.76609 -0.481,0.90619 -0.91765,1.83453 -1.30936,2.78296 -0.17757,0.41156 -0.33969,0.82891 -0.51114,1.24294 -0.18278,0.41841 -1.1371,1.09882 -1.35732,0.69193 -0.0223,-0.0411 -0.015,-0.0945 -0.0375,-0.13519 -0.0595,-0.19712 -0.088,-0.40034 -0.14692,-0.59791 -0.0638,-0.24487 -0.0861,-0.49532 -0.12863,-0.74417 -0.0527,-0.21718 -0.0994,-0.43753 -0.18985,-0.64295 -0.0856,-0.19419 -0.15477,-0.3947 -0.25938,-0.58002 -0.0904,-0.15783 -0.16108,-0.32629 -0.24984,-0.48518 -0.16615,-0.29552 -0.33395,-0.58975 -0.5106,-0.87919 0,0 1.16862,-0.67734 1.16862,-0.67734 z"
       inkscape:connector-curvature="0" />
    <path
       style="fill:#4d4d4d;fill-opacity:1;stroke-width:0.06810794;stroke-miterlimit:4;stroke-dasharray:none"
       id="path4546-3-2-4"
       d="m 20.366041,21.833103 c 0.16402,0.2975 0.33997,0.58837 0.5118,0.88148 0.093,0.15682 0.16482,0.32484 0.25404,0.48351 0.10499,0.19064 0.17875,0.39465 0.26341,0.59464 0.0953,0.21156 0.14685,0.43811 0.20173,0.66247 0.0486,0.2474 0.0675,0.49859 0.12691,0.74394 0.0604,0.19424 0.0893,0.39564 0.1481,0.59005 0.007,0.0264 0.0145,0.053 0.0223,0.0792 0.005,0.0181 0.007,0.0381 0.0174,0.0542 0.004,0.006 0.002,-0.0142 0.004,-0.0213 0.002,-0.0152 0.0203,-0.0525 0.006,-0.0455 -1.0827,0.55933 -1.43654,0.95171 -1.08508,0.57355 0.20863,-0.40009 0.36578,-0.82558 0.54939,-1.2378 0.40838,-0.94865 0.8439,-1.88532 1.32375,-2.79991 0.91431,-1.6907 2.05674,-3.24215 3.14371,-4.82316 1.07222,-1.52635 2.16888,-3.03797 3.31819,-4.50757 0.86653,-1.10798 1.67299,-2.06533 2.56876,-3.1454705 0,0 1.04875,-0.44564 1.04875,-0.44564 v 0 c -0.9658,1.1556005 -1.64414,1.9477605 -2.57475,3.1422505 -1.13566,1.45771 -2.21355,2.96132 -3.26695,4.47904 -1.05406,1.56355 -2.14766,3.10708 -3.04947,4.76608 -0.48101,0.9062 -0.91766,1.83453 -1.30937,2.78296 -0.17756,0.41156 -0.33969,0.82892 -0.51114,1.24294 -0.18278,0.41841 -1.1371,1.09882 -1.35731,0.69194 -0.0223,-0.0411 -0.015,-0.0945 -0.0375,-0.1352 -0.0595,-0.19711 -0.0879,-0.40034 -0.14691,-0.5979 -0.0638,-0.24488 -0.0861,-0.49533 -0.12864,-0.74418 -0.0527,-0.21718 -0.0994,-0.43753 -0.18985,-0.64295 -0.0856,-0.19419 -0.15477,-0.39469 -0.25938,-0.58001 -0.0904,-0.15784 -0.16107,-0.32629 -0.24984,-0.48519 -0.16615,-0.29551 -0.33394,-0.58974 -0.5106,-0.87919 0,0 1.16862,-0.67734 1.16862,-0.67734 z"
       inkscape:connector-curvature="0" />
    <path
       style="fill:#333333;fill-opacity:1;stroke-width:0.06810794;stroke-miterlimit:4;stroke-dasharray:none"
       id="path4546-3-0-0"
       d="m 20.048261,21.833103 c 0.16401,0.2975 0.33997,0.58837 0.5118,0.88148 0.093,0.15682 0.16481,0.32484 0.25403,0.48351 0.10499,0.19064 0.17875,0.39465 0.26342,0.59464 0.0953,0.21156 0.14685,0.43811 0.20173,0.66247 0.0486,0.2474 0.0675,0.49859 0.1269,0.74394 0.0604,0.19424 0.0893,0.39564 0.1481,0.59005 0.007,0.0264 0.0145,0.053 0.0223,0.0792 0.005,0.0181 0.007,0.0381 0.0174,0.0542 0.004,0.006 0.002,-0.0142 0.004,-0.0213 0.002,-0.0152 0.0203,-0.0525 0.006,-0.0455 -1.0827,0.55933 -1.43654,0.95171 -1.08508,0.57355 0.20863,-0.40009 0.36578,-0.82558 0.5494,-1.2378 0.40836,-0.94865 0.84389,-1.88532 1.32373,-2.79991 0.91431,-1.6907 2.05674,-3.24215 3.14371,-4.82316 1.07222,-1.52636 2.16888,-3.03797 3.3182,-4.50757 0.86652,-1.10798 1.67298,-2.06533 2.56876,-3.1454705 0,0 1.04875,-0.44564 1.04875,-0.44564 v 0 c -0.9658,1.1556005 -1.64414,1.9477605 -2.57475,3.1422505 -1.13566,1.4577 -2.21356,2.96132 -3.26695,4.47904 -1.05406,1.56355 -2.14767,3.10708 -3.04948,4.76608 -0.481,0.9062 -0.91765,1.83453 -1.30937,2.78296 -0.17756,0.41156 -0.33968,0.82892 -0.51114,1.24294 -0.18277,0.41841 -1.13709,1.09882 -1.35731,0.69194 -0.0223,-0.0411 -0.015,-0.0945 -0.0375,-0.1352 -0.0595,-0.19711 -0.0879,-0.40034 -0.14692,-0.5979 -0.0638,-0.24488 -0.0861,-0.49533 -0.12863,-0.74418 -0.0527,-0.21718 -0.0994,-0.43753 -0.18986,-0.64295 -0.0855,-0.19419 -0.15476,-0.39469 -0.25937,-0.58001 -0.0904,-0.15784 -0.16108,-0.32629 -0.24984,-0.48519 -0.16616,-0.29551 -0.33395,-0.58974 -0.51061,-0.87919 0,0 1.16863,-0.67734 1.16863,-0.67734 z"
       inkscape:connector-curvature="0" />
    <path
       style="fill:#1a1a1a;fill-opacity:1;stroke-width:0.06810794;stroke-miterlimit:4;stroke-dasharray:none"
       id="path4546-3-6-0"
       d="m 19.730451,21.816373 c 0.16402,0.29751 0.33997,0.58838 0.5118,0.88149 0.093,0.15682 0.16482,0.32483 0.25404,0.4835 0.10499,0.19065 0.17875,0.39466 0.26341,0.59465 0.0953,0.21156 0.14685,0.43811 0.20173,0.66246 0.0486,0.24741 0.0675,0.49859 0.12691,0.74395 0.0604,0.19423 0.0893,0.39564 0.1481,0.59004 0.007,0.0264 0.0145,0.053 0.0223,0.0792 0.005,0.0181 0.007,0.0381 0.0174,0.0542 0.004,0.006 0.002,-0.0142 0.004,-0.0213 0.002,-0.0152 0.0203,-0.0525 0.006,-0.0455 -1.08269,0.55933 -1.43653,0.95171 -1.08507,0.57355 0.20863,-0.4001 0.36577,-0.82558 0.54939,-1.2378 0.40838,-0.94865 0.8439,-1.88532 1.32375,-2.79991 0.91431,-1.69071 2.05674,-3.24215 3.1437,-4.82316 1.07222,-1.52636 2.16889,-3.03798 3.3182,-4.50757 0.86653,-1.10799 1.67299,-2.06533 2.56876,-3.1454705 0,0 1.04875,-0.44565 1.04875,-0.44565 v 0 c -0.9658,1.1556005 -1.64414,1.9477605 -2.57475,3.1422605 -1.13566,1.4577 -2.21356,2.96131 -3.26695,4.47903 -1.05406,1.56356 -2.14766,3.10709 -3.04948,4.76609 -0.481,0.90619 -0.91765,1.83453 -1.30936,2.78296 -0.17757,0.41156 -0.33969,0.82891 -0.51114,1.24294 -0.18278,0.41841 -1.1371,1.09882 -1.35731,0.69193 -0.0223,-0.0411 -0.015,-0.0945 -0.0375,-0.13519 -0.0595,-0.19712 -0.088,-0.40034 -0.14691,-0.59791 -0.0638,-0.24487 -0.0861,-0.49532 -0.12864,-0.74417 -0.0527,-0.21718 -0.0994,-0.43753 -0.18985,-0.64295 -0.0855,-0.19419 -0.15477,-0.3947 -0.25938,-0.58002 -0.0904,-0.15783 -0.16107,-0.32629 -0.24984,-0.48518 -0.16615,-0.29551 -0.33394,-0.58975 -0.5106,-0.87919 0,0 1.16862,-0.67734 1.16862,-0.67734 z"
       inkscape:connector-curvature="0" />
    <path
       style="fill:#000000;fill-opacity:1;stroke-width:0.06810794;stroke-miterlimit:4;stroke-dasharray:none"
       id="path4546-3-5-4"
       d="m 19.383711,21.798573 c 0.16402,0.29751 0.33997,0.58838 0.5118,0.88149 0.093,0.15682 0.16482,0.32483 0.25404,0.4835 0.10499,0.19065 0.17875,0.39466 0.26341,0.59465 0.0953,0.21156 0.14685,0.43811 0.20173,0.66247 0.0486,0.2474 0.0675,0.49858 0.12691,0.74394 0.0604,0.19423 0.0893,0.39564 0.1481,0.59005 0.007,0.0264 0.0144,0.053 0.0223,0.0792 0.005,0.0181 0.007,0.0381 0.0174,0.0542 0.004,0.006 0.002,-0.0142 0.004,-0.0213 0.002,-0.0152 0.0203,-0.0525 0.006,-0.0455 -1.0827,0.55933 -1.43654,0.95171 -1.08508,0.57355 0.20863,-0.4001 0.36578,-0.82558 0.54939,-1.2378 0.40838,-0.94865 0.8439,-1.88532 1.32375,-2.79991 0.91431,-1.69071 2.05674,-3.24215 3.14371,-4.82316 1.07222,-1.52636 2.16888,-3.03798 3.31819,-4.50757 0.86653,-1.10799 1.67299,-2.06533 2.56876,-3.1454705 0,0 1.04875,-0.44564 1.04875,-0.44564 v 0 c -0.9658,1.1555905 -1.64414,1.9477505 -2.57475,3.1422505 -1.13566,1.4577 -2.21355,2.96131 -3.26695,4.47904 -1.05406,1.56355 -2.14766,3.10708 -3.04947,4.76608 -0.48101,0.90619 -0.91766,1.83453 -1.30937,2.78296 -0.17756,0.41156 -0.33969,0.82891 -0.51114,1.24294 -0.18278,0.41841 -1.1371,1.09882 -1.35731,0.69193 -0.0223,-0.0411 -0.015,-0.0945 -0.0375,-0.13519 -0.0595,-0.19712 -0.088,-0.40034 -0.14691,-0.59791 -0.0638,-0.24487 -0.0861,-0.49532 -0.12864,-0.74417 -0.0527,-0.21718 -0.0994,-0.43753 -0.18985,-0.64295 -0.0856,-0.19419 -0.15477,-0.3947 -0.25938,-0.58001 -0.0904,-0.15784 -0.16107,-0.3263 -0.24984,-0.48519 -0.16615,-0.29551 -0.33394,-0.58975 -0.5106,-0.87919 0,0 1.16862,-0.67734 1.16862,-0.67734 z"
       inkscape:connector-curvature="0" />
    <path
       style="fill:#008000;fill-opacity:1;stroke:#eaf1ea;stroke-width:0.06810794;stroke-miterlimit:4;stroke-dasharray:none;stroke-opacity:1"
       id="path4546-3-4"
       d="m 18.932111,21.798573 c 0.16401,0.29751 0.33997,0.58838 0.5118,0.88149 0.093,0.15682 0.16481,0.32483 0.25404,0.4835 0.10498,0.19065 0.17874,0.39466 0.26341,0.59465 0.0953,0.21156 0.14685,0.43811 0.20173,0.66247 0.0486,0.2474 0.0675,0.49858 0.1269,0.74394 0.0604,0.19423 0.0893,0.39564 0.14811,0.59005 0.007,0.0264 0.0144,0.053 0.0223,0.0792 0.005,0.0181 0.007,0.0381 0.0174,0.0542 0.004,0.006 0.002,-0.0142 0.004,-0.0213 0.002,-0.0152 0.0203,-0.0525 0.006,-0.0455 -1.08269,0.55933 -1.43653,0.95171 -1.08508,0.57355 0.20864,-0.4001 0.36578,-0.82558 0.5494,-1.2378 0.40837,-0.94865 0.8439,-1.88532 1.32374,-2.79991 0.91431,-1.69071 2.05674,-3.24215 3.14371,-4.82316 1.07222,-1.52636 2.16888,-3.03798 3.3182,-4.50757 0.86653,-1.10799 1.67298,-2.06533 2.56876,-3.1454705 0,0 1.04875,-0.44564 1.04875,-0.44564 v 0 c -0.9658,1.1555905 -1.64414,1.9477505 -2.57475,3.1422505 -1.13566,1.4577 -2.21356,2.96131 -3.26695,4.47904 -1.05406,1.56355 -2.14767,3.10708 -3.04948,4.76608 -0.481,0.90619 -0.91765,1.83453 -1.30936,2.78296 -0.17757,0.41156 -0.33969,0.82891 -0.51115,1.24294 -0.18277,0.41841 -1.13709,1.09882 -1.35731,0.69193 -0.0223,-0.0411 -0.015,-0.0945 -0.0375,-0.13519 -0.0595,-0.19712 -0.088,-0.40034 -0.14692,-0.59791 -0.0638,-0.24487 -0.0861,-0.49532 -0.12863,-0.74417 -0.0527,-0.21718 -0.0994,-0.43753 -0.18986,-0.64295 -0.0855,-0.19419 -0.15476,-0.3947 -0.25937,-0.58001 -0.0904,-0.15784 -0.16108,-0.3263 -0.24984,-0.48519 -0.16615,-0.29551 -0.33395,-0.58975 -0.51061,-0.87919 0,0 1.16863,-0.67734 1.16863,-0.67734 z"
       inkscape:connector-curvature="0" />
    <path
       style="fill:none;stroke:#008000;stroke-width:0.18733063px;stroke-linecap:butt;stroke-linejoin:miter;stroke-opacity:1"
       d="m 20.189881,24.587003 c 0.0319,0.46364 0.18606,0.96759 0.29567,1.35124"
       id="path4670-1"
       inkscape:connector-curvature="0" />
    <path
       style="fill:none;stroke:#008000;stroke-width:0.19888991px;stroke-linecap:butt;stroke-linejoin:miter;stroke-opacity:1"
       d="m 19.990371,24.508263 c 0.0339,0.49225 0.19754,1.0273 0.31391,1.43462"
       id="path4670-6-2"
       inkscape:connector-curvature="0" />
    <path
       style="fill:none;stroke:#008000;stroke-width:0.20150945px;stroke-linecap:butt;stroke-linejoin:miter;stroke-opacity:1"
       d="m 19.300401,26.460083 c 0.41123,-0.13968 0.83982,-0.44103 1.16729,-0.66077"
       id="path4670-6-6-5"
       inkscape:connector-curvature="0" />
    <path
       style="fill:none;stroke:#008000;stroke-width:0.22129858px;stroke-linecap:butt;stroke-linejoin:miter;stroke-opacity:1"
       d="m 19.366401,26.371003 c 0.28561,-0.38742 0.49341,-0.93981 0.65826,-1.35185"
       id="path4670-6-6-2-3"
       inkscape:connector-curvature="0" />
  </g>
</svg>
